<svg width="997" height="240" viewBox="0 0 997 240" fill="none" xmlns="http://www.w3.org/2000/svg">
<path d="M0 236.279H60.0143L72.4526 61.3953C72.6599 59.1214 73.1263 57.261 73.8518 55.814C74.5774 54.3669 75.9767 53.6434 78.0497 53.6434C79.7082 53.6434 81.0556 54.2636 82.0922 55.5039C83.1287 56.7442 83.8542 58.5013 84.2688 60.7752L106.036 184.496C108.731 200.62 115.468 213.902 126.248 224.341C137.028 234.78 151.435 240 169.471 240C186.884 240 200.929 234.935 211.605 224.806C222.281 214.677 228.967 201.344 231.662 184.806L252.496 60.4651C252.703 58.6047 253.325 57.0026 254.361 55.6589C255.398 54.3152 256.745 53.6434 258.404 53.6434C260.477 53.6434 261.772 54.3669 262.291 55.814C262.809 57.261 263.172 59.0181 263.379 61.0853L275.817 236.279H335.832L321.217 70.0775C319.144 45.478 313.287 27.6486 303.648 16.5891C294.008 5.52972 279.341 0 259.648 0C240.99 0 226.116 5.73643 215.026 17.2093C203.935 28.6822 196.938 44.2377 194.036 63.876L176.312 179.225C176.104 181.705 175.482 183.669 174.446 185.116C173.409 186.563 171.855 187.287 169.782 187.287C167.708 187.287 166.206 186.667 165.273 185.426C164.34 184.186 163.666 182.326 163.251 179.845L144.905 64.186C141.796 44.3411 134.695 28.6822 123.605 17.2093C112.514 5.73643 97.5363 0 78.6717 0C61.0509 0 46.4878 5.47804 34.9825 16.4341C23.4771 27.3902 16.6879 45.2713 14.6149 70.0775L0 236.279Z" fill="white"/>
<path d="M541.791 185.364H456.451C436.589 185.364 423.039 181.577 415.798 174.003C408.557 166.429 404.936 153.927 404.936 136.497V103.503C404.936 86.073 408.453 73.5709 415.487 65.9969C422.521 58.423 435.659 54.6361 454.899 54.6361H540.239V3.27869H451.796C433.383 3.27869 417.142 5.61311 403.074 10.282C389.006 14.9508 377.317 21.591 368.007 30.2024C358.697 38.8138 351.663 49.2928 346.905 61.6393C342.146 73.9859 339.767 87.733 339.767 102.881V137.119C339.767 152.267 342.146 166.014 346.905 178.361C351.663 190.707 358.697 201.186 368.007 209.798C377.317 218.409 389.006 225.049 403.074 229.718C417.142 234.387 433.383 236.721 451.796 236.721H541.791V185.364Z" fill="white"/>
<path d="M730.395 120C730.395 156.808 703.176 184.339 669.039 184.339C634.903 184.339 607.684 156.808 607.684 120C607.684 83.192 634.903 55.6609 669.039 55.6609C703.176 55.6609 730.395 83.192 730.395 120ZM669.039 0C600.014 0 545.726 53.2668 545.726 120C545.726 186.733 600.014 240 669.039 240C738.065 240 792.353 186.733 792.353 120C792.353 53.2668 738.065 0 669.039 0Z" fill="#FF612B"/>
<path d="M796.288 240H997V187.2H858.81V145.6H997V94.4H858.81V52.8H997V0H796.288V240Z" fill="white"/>
</svg>
