<svg width="25" height="13" viewBox="0 0 25 13" fill="none" xmlns="http://www.w3.org/2000/svg">
<path d="M18.2532 9.71249C18.0473 9.71254 17.8461 9.65623 17.6748 9.55067C17.5036 9.44513 17.37 9.29509 17.2913 9.11953C17.2123 8.94398 17.1918 8.75079 17.2318 8.5644C17.272 8.37802 17.3711 8.20678 17.5166 8.07239C17.6623 7.93799 17.8477 7.84644 18.0496 7.80934C18.2516 7.77223 18.4609 7.79121 18.6513 7.86391C18.8414 7.9366 19.0041 8.05972 19.1186 8.21772C19.233 8.37569 19.2941 8.56145 19.2941 8.75148C19.2938 9.00621 19.1841 9.25044 18.9889 9.43058C18.7937 9.61073 18.5293 9.71211 18.2532 9.71249ZM6.7468 9.71249C6.54091 9.71254 6.33961 9.65623 6.16838 9.55067C5.99714 9.44513 5.86368 9.29509 5.78484 9.11953C5.70602 8.94398 5.68536 8.75079 5.72548 8.5644C5.76563 8.37802 5.86473 8.20678 6.0103 8.07239C6.15587 7.93799 6.34137 7.84644 6.54332 7.80934C6.74527 7.77223 6.95459 7.79121 7.14484 7.86391C7.33509 7.9366 7.49771 8.05972 7.61214 8.21772C7.72657 8.37569 7.78768 8.56145 7.78771 8.75148C7.78745 9.00623 7.67771 9.25047 7.48257 9.43063C7.28743 9.6108 7.02284 9.71216 6.7468 9.71249ZM18.6264 3.92524L20.707 0.599718C20.7354 0.554304 20.7539 0.504141 20.7612 0.452141C20.7687 0.400124 20.765 0.347258 20.7504 0.296575C20.7357 0.245875 20.7104 0.198364 20.6757 0.156713C20.6412 0.115078 20.598 0.0801165 20.5487 0.0538565C20.4996 0.0275965 20.4452 0.0105401 20.3889 0.00365878C20.3325 -0.00322255 20.2752 0.000226459 20.2204 0.0137638C20.1654 0.0273185 20.1139 0.0507186 20.0687 0.0826466C20.0237 0.114557 19.9859 0.154355 19.9573 0.199786L17.8507 3.56731C16.2396 2.88874 14.4304 2.51089 12.4998 2.51089C10.5693 2.51089 8.76014 2.88928 7.14916 3.56731L5.04264 0.199786C5.01423 0.154355 4.97639 0.114522 4.9313 0.0825772C4.88621 0.0506492 4.83475 0.0272151 4.77984 0.0136258C4.72495 3.64296e-05 4.66768 -0.00343088 4.61132 0.00341579C4.55496 0.0102451 4.50061 0.0272667 4.45138 0.053492C4.40214 0.0797173 4.359 0.114644 4.32439 0.156261C4.28979 0.197879 4.26439 0.245372 4.24968 0.296038C4.23495 0.34672 4.2312 0.399569 4.23861 0.451569C4.24602 0.503587 4.26446 0.55375 4.29288 0.59918L6.3735 3.92524C2.80096 5.71854 0.357429 9.05637 0 13H25C24.6421 9.05637 22.1988 5.71854 18.6264 3.92524Z" fill="currentColor"/>
</svg>
