<svg width="25" height="25" viewBox="0 0 25 25" fill="none" xmlns="http://www.w3.org/2000/svg">
<path d="M19.9475 0H5.04938C2.25909 0 0 2.25936 0 5.04999V19.9531C0 22.7406 2.25909 25 5.04938 25H19.9507C22.7379 25 25 22.7406 25 19.9499V5.04999C24.997 2.25936 22.7379 0 19.9475 0Z" fill="url(#paint0_linear_3024_3077)"/>
<path d="M12.3937 5.74373L12.9 4.86873C13.2125 4.32186 13.9094 4.13748 14.4563 4.44999C15.0031 4.76249 15.1875 5.45936 14.875 6.00623L9.99687 14.45H13.525C14.6688 14.45 15.3094 15.7937 14.8125 16.7249H4.46875C3.8375 16.7249 3.33125 16.2188 3.33125 15.5874C3.33125 14.9562 3.8375 14.45 4.46875 14.45H7.36875L11.0813 8.0156L9.92188 6.0031C9.60938 5.45623 9.79375 4.76561 10.3406 4.44686C10.8875 4.13436 11.5781 4.31874 11.8969 4.86561L12.3937 5.74373ZM8.00625 17.8968L6.9125 19.7937C6.6 20.3405 5.90312 20.525 5.35625 20.2125C4.80937 19.8999 4.625 19.203 4.9375 18.6562L5.75 17.25C6.66875 16.9656 7.41563 17.1842 8.00625 17.8968ZM17.425 14.4562H20.3843C21.0155 14.4562 21.5218 14.9624 21.5218 15.5937C21.5218 16.225 21.0155 16.7311 20.3843 16.7311H18.7405L19.85 18.6562C20.1625 19.203 19.978 19.8937 19.4312 20.2125C18.8843 20.525 18.1938 20.3405 17.875 19.7937C16.0063 16.5531 14.6031 14.1281 13.6719 12.5124C12.7188 10.8687 13.4 9.21873 14.0719 8.65934C14.8187 9.94058 15.9344 11.875 17.425 14.4562Z" fill="white"/>
<defs>
<linearGradient id="paint0_linear_3024_3077" x1="12.5" y1="0" x2="12.5" y2="25" gradientUnits="userSpaceOnUse">
<stop stop-color="#18BFFB"/>
<stop offset="1" stop-color="#2072F3"/>
</linearGradient>
</defs>
</svg>
