<svg width="25" height="25" viewBox="0 0 25 25" fill="none" xmlns="http://www.w3.org/2000/svg">
<path fill-rule="evenodd" clip-rule="evenodd" d="M5.04937 0H19.9475C22.7378 0 24.9969 2.25937 25 5.05V19.95C25 22.7406 22.7378 25 19.9506 25H5.04937C2.25909 25 0 22.7406 0 19.9531V5.05C0 2.25937 2.25909 0 5.04937 0ZM12.8984 4.8688L12.3922 5.7438L11.8954 4.86567C11.5767 4.3188 10.8861 4.13443 10.3393 4.44693C9.79251 4.76568 9.60816 5.4563 9.92062 6.00317L11.0799 8.01568L7.36782 14.45H4.46818C3.83701 14.45 3.33082 14.9563 3.33082 15.5875C3.33082 16.2188 3.83701 16.725 4.46818 16.725H14.8106C15.3075 15.7937 14.6669 14.45 13.5233 14.45H9.99561L14.8731 6.0063C15.1856 5.45942 15.0012 4.76255 14.4544 4.45005C13.9076 4.13755 13.2108 4.32193 12.8984 4.8688ZM6.91162 19.7937L8.00524 17.8969C7.41469 17.1844 6.6679 16.9656 5.74927 17.25L4.93687 18.6562C4.62441 19.2031 4.80876 19.9 5.35557 20.2125C5.90237 20.525 6.59916 20.3406 6.91162 19.7937ZM20.3818 14.4562H17.4228C17.1962 14.0639 16.9783 13.6863 16.7689 13.3238C15.6017 11.3019 14.7033 9.74586 14.0701 8.65942C13.3983 9.2188 12.7172 10.8688 13.6702 12.5125C14.0835 13.2296 14.5897 14.1062 15.1885 15.1429C15.9385 16.4416 16.8336 17.9916 17.8728 19.7937C18.1915 20.3406 18.882 20.525 19.4288 20.2125C19.9756 19.8937 20.16 19.2031 19.8475 18.6562L18.7383 16.7313H20.3818C21.013 16.7313 21.5192 16.225 21.5192 15.5938C21.5192 14.9625 21.013 14.4562 20.3818 14.4562Z" fill="currentColor"/>
</svg>
