<svg width="25" height="25" viewBox="0 0 25 25" fill="none" xmlns="http://www.w3.org/2000/svg">
<path d="M12.4999 2.5C7.4004 2.5 3.19241 6.31711 2.57729 11.25H0V3.125H2.5V4.99869C4.78057 1.96331 8.41097 0 12.4999 0C18.097 0 22.8349 3.67861 24.4276 8.75H21.773C20.2895 5.08521 16.6966 2.5 12.4999 2.5Z" fill="currentColor"/>
<path d="M22.4225 13.75C21.8074 18.6829 17.5995 22.5 12.4999 22.5C8.3032 22.5 4.71029 19.9147 3.22682 16.25H0.572175C2.16501 21.3214 6.90287 25 12.4999 25C16.589 25 20.2194 23.0366 22.5 20.0011V21.875H25V13.75H22.4225Z" fill="currentColor"/>
<path fill-rule="evenodd" clip-rule="evenodd" d="M11.1578 5.2291C11.9767 4.70797 13.0233 4.70797 13.8422 5.2291L18.2171 8.01319C18.9382 8.47209 19.375 9.2676 19.375 10.1224V14.8776C19.375 15.7324 18.9382 16.5279 18.2172 16.9868L13.8422 19.7709C13.0233 20.292 11.9767 20.292 11.1578 19.7709L6.78281 16.9868C6.06169 16.5279 5.625 15.7324 5.625 14.8776V10.1224C5.625 9.2676 6.06169 8.47209 6.78281 8.01319L11.1578 5.2291ZM12.5 12.0452L8.59014 9.81108L7.65987 11.439L11.5625 13.6691V17.5H13.4375V13.6691L17.3401 11.439L16.4099 9.81108L12.5 12.0452Z" fill="currentColor"/>
</svg>
