<svg width="25" height="25" viewBox="0 0 25 25" fill="none" xmlns="http://www.w3.org/2000/svg">
<path d="M25 2.67857C25 1.19923 23.8007 0 22.3214 0H2.67857C1.19923 0 0 1.19923 0 2.67857H25Z" fill="currentColor"/>
<path d="M25 4.91071H0V7.58929H25V4.91071Z" fill="currentColor"/>
<path fill-rule="evenodd" clip-rule="evenodd" d="M0 9.82143V22.3214C0 23.8007 1.19923 25 2.67857 25H22.3214C23.8007 25 25 23.8007 25 22.3214V9.82143H0ZM20.0893 12.5H22.3214V20.4273L18.7296 16.8357C19.5868 15.6066 20.0893 14.112 20.0893 12.5ZM17.4107 12.5C17.4107 13.3694 17.1848 14.186 16.7884 14.8944L14.394 12.5H17.4107ZM7.58929 12.5H10.606L8.21157 14.8944C7.81521 14.186 7.58929 13.3694 7.58929 12.5ZM4.91071 12.5C4.91071 14.112 5.41329 15.6066 6.27029 16.8357L2.67857 20.4273V12.5H4.91071ZM12.5 14.394L14.8944 16.7884C14.186 17.1848 13.3694 17.4107 12.5 17.4107C11.6306 17.4107 10.814 17.1848 10.1056 16.7884L12.5 14.394ZM4.57261 22.3214L8.16432 18.7296C9.39341 19.5868 10.888 20.0893 12.5 20.0893C14.112 20.0893 15.6066 19.5868 16.8357 18.7296L20.4273 22.3214H4.57261Z" fill="currentColor"/>
</svg>
