<svg width="30" height="25" viewBox="0 0 30 25" fill="none" xmlns="http://www.w3.org/2000/svg">
<path fill-rule="evenodd" clip-rule="evenodd" d="M14.8072 20.287C13.0021 20.287 11.5385 18.7034 11.5385 16.7512H18.0769C18.0769 18.7034 16.6133 20.2859 14.8072 20.2859V20.287ZM5.38463 14.7884H9.6154C9.6154 13.7034 8.66873 12.8236 7.4995 12.8236C6.3313 12.8236 5.38463 13.7044 5.38463 14.7884ZM20.3846 14.7884H24.6154C24.6154 13.7034 23.6687 12.8236 22.4995 12.8236C21.3313 12.8236 20.3846 13.7044 20.3846 14.7884ZM16.0185 1.23691C16.0185 0.90886 15.8908 0.594247 15.6637 0.362282C15.4365 0.130317 15.1284 0 14.8072 0C14.4859 0 14.1778 0.130317 13.9507 0.362282C13.7235 0.594247 13.5959 0.90886 13.5959 1.23691C13.5959 1.56496 13.7235 1.87957 13.9507 2.11153C14.1778 2.3435 14.4859 2.47382 14.8072 2.47382C15.1284 2.47382 15.4365 2.3435 15.6637 2.11153C15.8908 1.87957 16.0185 1.56496 16.0185 1.23691Z" fill="#760fc3
"/>
<path fill-rule="evenodd" clip-rule="evenodd" d="M25.7395 22.633C23.1651 22.7566 19.2113 22.9022 15 22.9022C10.7877 22.9022 6.83489 22.7556 4.26053 22.6341C3.95373 22.6206 3.65269 22.5444 3.37522 22.41C3.09776 22.2756 2.8495 22.0858 2.64515 21.8517C2.44045 21.62 2.28356 21.3487 2.18382 21.0537C2.08408 20.7588 2.04355 20.4464 2.06464 20.1351C2.20105 18.0383 2.38464 16.1824 2.61028 14.6177C2.94669 12.2968 3.4513 9.93925 3.81643 8.37139C3.92867 7.87992 4.19378 7.43879 4.57207 7.11405C4.95036 6.7893 5.42147 6.59842 5.91489 6.56996C7.78155 6.45161 10.8739 6.31022 15 6.31022C19.1261 6.31022 22.2184 6.45161 24.0851 6.56996C24.5785 6.59842 25.0496 6.7893 25.4279 7.11405C25.8062 7.43879 26.0713 7.87992 26.1836 8.37139C26.5487 9.9403 27.0533 12.2979 27.3887 14.6177C27.6143 16.1824 27.799 18.0383 27.9343 20.1351C27.9554 20.4464 27.9148 20.7588 27.8151 21.0537C27.7153 21.3486 27.5585 21.62 27.3538 21.8517C27.1496 22.0857 26.9015 22.2755 26.6243 22.4099C26.347 22.5443 26.0461 22.6194 25.7395 22.633ZM28.1877 7.88856C27.9746 6.95806 27.4723 6.12296 26.756 5.5081C26.0396 4.89324 25.1476 4.53165 24.2133 4.47738C22.3169 4.35693 19.1795 4.21345 15 4.21345C10.8205 4.21345 7.68207 4.35693 5.78668 4.47738C4.85221 4.53143 3.95998 4.89292 3.2434 5.5078C2.52683 6.12267 2.02442 6.95789 1.81131 7.88856C1.43798 9.49728 0.919002 11.9166 0.574387 14.3119C0.339516 15.9321 0.149772 17.8446 0.0102855 19.9979C-0.0296792 20.5874 0.0470816 21.1791 0.235986 21.7377C0.42489 22.2962 0.722065 22.8102 1.10977 23.2488C1.49621 23.6913 1.96563 24.0502 2.49025 24.3042C3.01487 24.5582 3.58405 24.7022 4.16412 24.7277C6.76002 24.8513 10.7487 25 15 25C19.2513 25 23.239 24.8513 25.8359 24.7277C26.416 24.7023 26.9852 24.5583 27.5098 24.3043C28.0344 24.0503 28.5038 23.6914 28.8902 23.2488C29.2779 22.8102 29.5751 22.2962 29.764 21.7377C29.9529 21.1791 30.0297 20.5874 29.9897 19.9979C29.8502 17.8446 29.6615 15.9321 29.4256 14.3119C29.08 11.9187 28.562 9.49728 28.1877 7.88856Z" fill="#760fc3
"/>
</svg>
