<svg width="20" height="25" viewBox="0 0 20 25" fill="none" xmlns="http://www.w3.org/2000/svg">
<path d="M7.5 7.5H5V10H7.5V7.5ZM5 11.25H7.5V13.75H5V11.25ZM7.5 15H5V17.5H7.5V15ZM8.75 7.5H15V10H8.75V7.5ZM15 11.25H8.75V13.75H15V11.25ZM8.75 15H15V17.5H8.75V15Z" fill="currentColor"/>
<path fill-rule="evenodd" clip-rule="evenodd" d="M14.665 1.25H17.5C18.163 1.25 18.7989 1.51339 19.2678 1.98223C19.7366 2.45107 20 3.08696 20 3.75V22.5C20 23.163 19.7366 23.7989 19.2678 24.2678C18.7989 24.7366 18.163 25 17.5 25H2.5C1.83696 25 1.20107 24.7366 0.732233 24.2678C0.263392 23.7989 0 23.163 0 22.5V3.75C0 3.08696 0.263392 2.45107 0.732233 1.98223C1.20107 1.51339 1.83696 1.25 2.5 1.25H5.335C5.55442 0.869961 5.87 0.554373 6.25004 0.334952C6.63007 0.115532 7.06117 1.1148e-05 7.5 0H12.5C12.9388 1.1148e-05 13.3699 0.115532 13.75 0.334952C14.13 0.554373 14.4456 0.869961 14.665 1.25ZM5.335 3.75H2.5V22.5H17.5V3.75H14.665C14.4456 4.13004 14.13 4.44563 13.75 4.66505C13.3699 4.88447 12.9388 4.99999 12.5 5H7.5C7.06117 4.99999 6.63007 4.88447 6.25004 4.66505C5.87 4.44563 5.55442 4.13004 5.335 3.75Z" fill="currentColor"/>
</svg>
