<svg width="21" height="25" viewBox="0 0 21 25" fill="none" xmlns="http://www.w3.org/2000/svg">
<path fill-rule="evenodd" clip-rule="evenodd" d="M4.94118 7.28661C6.38053 6.77182 7.41176 5.38277 7.41176 3.75C7.41176 1.67894 5.75258 0 3.70588 0C1.65919 0 0 1.67894 0 3.75C0 5.38277 1.03124 6.77182 2.47059 7.28661V17.7134C1.03124 18.2281 0 19.6172 0 21.25C0 23.3211 1.65919 25 3.70588 25C5.75258 25 7.41176 23.3211 7.41176 21.25C7.41176 19.6172 6.38053 18.2281 4.94118 17.7134V7.28661ZM4.94118 3.75C4.94118 4.44035 4.38811 5 3.70588 5C3.02365 5 2.47059 4.44035 2.47059 3.75C2.47059 3.05965 3.02365 2.5 3.70588 2.5C4.38811 2.5 4.94118 3.05965 4.94118 3.75ZM4.94118 21.25C4.94118 21.9404 4.38811 22.5 3.70588 22.5C3.02365 22.5 2.47059 21.9404 2.47059 21.25C2.47059 20.5596 3.02365 20 3.70588 20C4.38811 20 4.94118 20.5596 4.94118 21.25Z" fill="currentColor"/>
<path fill-rule="evenodd" clip-rule="evenodd" d="M17.2941 25C19.3409 25 21 23.3211 21 21.25C21 19.6172 19.9688 18.2281 18.5294 17.7134V14.7627C18.5294 12.166 17.3895 9.70332 15.4181 8.04087L13.2942 6.25H17.2941V3.75H8.64706V12.5H11.1176V7.6688L13.8364 9.96142C15.2446 11.1489 16.0588 12.908 16.0588 14.7627V17.7134C14.6195 18.2281 13.5882 19.6172 13.5882 21.25C13.5882 23.3211 15.2474 25 17.2941 25ZM17.2941 22.5C17.9764 22.5 18.5294 21.9404 18.5294 21.25C18.5294 20.5596 17.9764 20 17.2941 20C16.6119 20 16.0588 20.5596 16.0588 21.25C16.0588 21.9404 16.6119 22.5 17.2941 22.5Z" fill="currentColor"/>
</svg>
