<svg width="25" height="25" viewBox="0 0 25 25" fill="none" xmlns="http://www.w3.org/2000/svg">
<path fill-rule="evenodd" clip-rule="evenodd" d="M3.875 7.4625C3.625 7.83625 3.375 8.33375 3.25 8.70625C2.34862 8.82992 1.52261 9.27612 0.925036 9.96219C0.327458 10.6483 -0.0011839 11.5277 3.20478e-06 12.4375C3.20478e-06 14.3038 1.375 15.92 3.25 16.1688C3.5 16.6663 3.75 17.2887 4 17.91C4.875 19.1537 6 20.2725 7.25 21.02L8.75 21.7663C9 23.6313 10.625 25 12.5 25C14.375 25 16 23.6313 16.25 21.7663C16.5 21.6413 16.7188 21.5163 16.9375 21.3925C17.1562 21.2675 17.375 21.1438 17.625 21.02C18.875 20.2738 20 19.1537 20.875 17.91C21.25 17.4125 21.5 16.7913 21.75 16.1688C22.6514 16.0451 23.4774 15.5989 24.075 14.9128C24.6725 14.2267 25.0012 13.3473 25 12.4375C25 10.5725 23.625 8.955 21.75 8.70625C21.6873 8.58029 21.626 8.45362 21.5662 8.32625C21.3712 7.91375 21.1588 7.46625 20.875 7.08875C20.1392 5.85975 19.108 4.8341 17.875 4.105C17.375 3.73125 16.875 3.4825 16.25 3.23375C16 1.36875 14.375 0 12.5 0C10.625 0 9 1.36875 8.75 3.23375C8.58375 3.31625 8.4025 3.4 8.2225 3.48375C7.86 3.64875 7.5 3.81375 7.25 3.98C5.875 4.85125 4.625 6.095 3.875 7.4625ZM12.5 4.975C13.25 4.975 13.75 4.4775 13.75 3.73125C13.75 2.985 13.25 2.4875 12.5 2.4875C11.75 2.4875 11.25 2.985 11.25 3.73125C11.25 4.4775 11.75 4.975 12.5 4.975ZM5.75 9.20375C6.75 9.95 7.5 11.07 7.5 12.4375C7.5 13.8062 6.75 14.925 5.75 15.6712C5.875 15.9212 6 16.1687 6.25 16.4175C6.875 17.4125 7.75 18.1588 8.625 18.78L9.375 19.155C10 18.1587 11.125 17.4125 12.5 17.4125C13.875 17.4125 15 18.1587 15.75 19.1537C16 19.0287 16.25 18.905 16.375 18.7812C17.375 18.1588 18.125 17.4125 18.75 16.4188C18.8125 16.2938 18.9063 16.1388 19 15.9825C19.0938 15.8275 19.1875 15.6712 19.25 15.5475C18.25 14.925 17.5 13.8062 17.5 12.4375C17.5 11.07 18.25 9.95 19.25 9.20375C19.125 8.955 19 8.70625 18.75 8.4575C18.125 7.5875 17.375 6.71625 16.5 6.22C16.4075 6.1725 16.3137 6.10875 16.215 6.04125C16.0462 5.92625 15.86 5.8 15.625 5.72125C15 6.71625 13.875 7.4625 12.5 7.4625C11.125 7.4625 10 6.71625 9.25 5.72125L8.5 6.095C7.5 6.84125 6.625 7.71125 6 8.7075C5.95835 8.78877 5.91288 8.86802 5.86375 8.945C5.7975 9.05 5.75 9.1275 5.75 9.20375ZM22.5 12.4375C22.5 13.1838 22 13.6812 21.25 13.6812C20.5 13.6812 20 13.1838 20 12.4375C20 11.6912 20.5 11.1938 21.25 11.1938C22 11.1938 22.5 11.6912 22.5 12.4375ZM12.5 22.3875C13.25 22.3875 13.75 21.89 13.75 21.1438C13.75 20.3975 13.25 19.9 12.5 19.9C11.75 19.9 11.25 20.3975 11.25 21.1438C11.25 21.89 11.75 22.3875 12.5 22.3875ZM5 12.4375C5 13.1838 4.5 13.6812 3.75 13.6812C3 13.6812 2.5 13.1838 2.5 12.4375C2.5 11.6912 3 11.1938 3.75 11.1938C4.5 11.1938 5 11.6912 5 12.4375Z" fill="currentColor"/>
</svg>
