<svg width="23" height="25" viewBox="0 0 23 25" fill="none" xmlns="http://www.w3.org/2000/svg">
<path d="M10.7411 11.9406L0.0952192 22.9278C0.214752 23.3452 0.429581 23.7302 0.723283 24.0532C1.01698 24.3762 1.38176 24.6289 1.78976 24.7918C2.19776 24.9546 2.63816 25.0234 3.07729 24.993C3.51642 24.9625 3.94267 24.8335 4.32344 24.6159L16.3021 17.8953L10.7411 11.9406Z" fill="#EA4335"/>
<path d="M21.5061 10.073L16.3258 7.15032L10.4952 12.1907L16.3497 17.8796L21.4902 14.9883C21.9455 14.7534 22.3271 14.4002 22.5932 13.967C22.8593 13.5338 23 13.037 23 12.5306C23 12.0242 22.8593 11.5275 22.5932 11.0943C22.3271 10.661 21.9455 10.3078 21.4902 10.073H21.5061Z" fill="#FBBC04"/>
<path d="M0.095219 2.07868C0.0308663 2.31302 -0.00114691 2.55484 3.13764e-05 2.79761V22.2089C0.000665839 22.4516 0.0326611 22.6932 0.0952192 22.9278L11.1061 12.222L0.095219 2.07868Z" fill="#4285F4"/>
<path d="M10.8205 12.5033L16.3258 7.15032L4.36311 0.398558C3.91305 0.138898 3.40121 0.00139839 2.87966 5.5313e-06C2.24978 -0.00121768 1.63676 0.20047 1.13405 0.574344C0.63134 0.948219 0.266542 1.47377 0.0952192 2.07086L10.8205 12.5033Z" fill="#34A853"/>
</svg>
