<svg width="20" height="24" viewBox="0 0 20 24" fill="none" xmlns="http://www.w3.org/2000/svg">
<path d="M9.73591 23.9445C9.56844 23.942 9.4025 23.9119 9.24469 23.8553L9.12189 23.8108L9.01382 23.7761C3.62026 21.4232 0 14.6619 0 6.93459C0 6.34514 0 5.75568 0.0638581 5.17119C0.0616485 5.15309 0.0616485 5.13479 0.0638581 5.1167L0.191574 4.01209C0.230697 3.65353 0.394951 3.32066 0.655 3.07295C0.915049 2.82523 1.25396 2.67881 1.61119 2.65982H2.15153C3.19127 2.53564 4.21632 2.30834 5.2118 1.98121C6.49272 1.60168 7.71462 1.04312 8.84189 0.321824C9.09215 0.14874 9.38824 0.0555441 9.6917 0.0543417H9.73591C10.0532 0.0552698 10.3635 0.148115 10.6299 0.321824C11.7523 1.0425 12.9692 1.60106 14.2453 1.98121C15.2415 2.3004 16.2666 2.51942 17.3055 2.63505H17.841C18.1991 2.6529 18.5392 2.79882 18.8002 3.04664C19.0613 3.29445 19.2262 3.62796 19.2655 3.98733L19.3883 5.10679C19.3856 5.12485 19.3856 5.14322 19.3883 5.16128C19.4276 5.74578 19.4522 6.33523 19.4522 6.92468C19.4522 14.6371 15.827 21.3985 10.4383 23.7662L10.345 23.8058L10.2222 23.8504C10.0665 23.9092 9.90211 23.941 9.73591 23.9445ZM3.06028 5.58232C3.0308 6.03307 3.01607 6.49374 3.01607 6.94945C3.01607 13.1263 5.75214 18.7038 9.73591 20.7595C13.7148 18.7038 16.4557 13.1263 16.4557 6.93459C16.4557 6.47888 16.4557 6.01821 16.4115 5.56746C15.3783 5.41966 14.3582 5.18943 13.3611 4.87894C12.1026 4.4925 10.8876 3.97454 9.73591 3.33348C8.58247 3.97453 7.36585 4.49248 6.10582 4.87894C5.11059 5.1939 4.09224 5.42909 3.06028 5.58232Z" fill="#003C71" fill-opacity="0.2"/>
<path d="M3.24203 9.62448C3.12394 8.73281 3.06323 7.83437 3.06028 6.93479C3.06028 6.48404 3.06028 6.02833 3.10449 5.58252C4.12803 5.42733 5.13806 5.19216 6.12547 4.87914C7.37782 4.49316 8.58633 3.97514 9.73099 3.33369C10.8784 3.97305 12.0883 4.49096 13.3414 4.87914C14.3272 5.19212 15.3356 5.4273 16.3575 5.58252C17.4007 5.69799 18.4532 5.69799 19.4964 5.58252C19.4964 5.31009 19.4964 5.41411 19.4571 5.13672C19.4598 5.11866 19.4598 5.10029 19.4571 5.08223L19.3343 3.96277C19.2803 3.59605 19.1001 3.26017 18.8253 3.01386C18.5505 2.76756 18.1986 2.62653 17.8311 2.61545L17.2957 2.58572C16.2595 2.47304 15.2374 2.25395 14.2453 1.93188C12.9817 1.55411 11.7764 1.00061 10.6643 0.287356C10.408 0.0979696 10.0979 -0.00280474 9.78012 5.94046e-05H9.68678C9.38449 0.00370948 9.0902 0.0986007 8.84189 0.272495C7.71536 0.995185 6.49327 1.55383 5.2118 1.93188C4.22276 2.2528 3.20401 2.47187 2.17118 2.58572L1.63575 2.61545C1.27246 2.63334 0.927421 2.78136 0.66269 3.03288C0.397958 3.2844 0.230905 3.62291 0.191574 3.98753L0.0687703 5.11195V5.16644C0 5.75094 0 6.34514 0 6.93459C0 14.6767 3.61535 21.468 8.99908 23.8258L9.09241 23.8605L9.21522 23.9051C9.54931 24.0316 9.91759 24.0316 10.2517 23.9051L10.3745 23.8605L10.4629 23.8258C13.6214 22.4438 16.1807 19.5263 17.7771 15.7667L13.98 16.5543C12.5064 18.7585 11.6025 19.7096 9.73099 20.7597C7.15211 19.4124 5.09882 16.5543 3.98376 13.0175C5.87768 13.3521 7.79861 13.5063 9.72117 13.4782C14.1421 13.4782 17.1189 12.6213 18.9659 11.8634C19.2954 10.6853 19.4607 9.4666 19.4571 8.24249C19.128 8.42081 15.6747 10.4022 9.72117 10.4022C7.53691 10.4319 5.35834 10.1704 3.24203 9.62448Z" fill="#003C71"/>
</svg>
