<svg width="20" height="25" viewBox="0 0 20 25" fill="none" xmlns="http://www.w3.org/2000/svg">
<path d="M15.0644 0C15.0644 0 15.3168 1.74942 13.7982 3.49884C12.0271 5.25013 10.0016 4.99887 10.0016 4.99887C10.0016 4.99887 9.6219 3.49884 11.1406 1.87505C12.7864 0 15.0644 0 15.0644 0ZM19.4931 9.00023C19.4931 9.00023 16.8355 10.3746 16.8355 13.6241C16.8355 17.2504 20 18.6248 20 18.6248C20 18.6248 17.722 25 14.5575 25C13.1661 25 12.0271 24.0006 10.5084 24.0006C8.98976 24.0006 7.4711 25 6.4574 25C3.54728 25 -0.122166 18.8742 0.00312325 14.1247C0.00312325 9.24961 3.04043 6.75017 5.95245 6.75017C7.85077 6.75017 9.24224 7.74957 10.254 7.74957C11.1406 7.74957 12.6592 6.62454 14.6847 6.62454C18.1017 6.62454 19.4931 9.00023 19.4931 9.00023Z" fill="currentColor"/>
</svg>
