<svg width="25" height="25" viewBox="0 0 25 25" fill="none" xmlns="http://www.w3.org/2000/svg">
<path d="M4.34842 19.2871C5.14306 19.3215 6.06344 20.0652 6.9146 20.8591L5.287 23.915C4.73354 24.954 3.50987 25.3086 2.55398 24.7071C1.59829 24.1054 1.27227 22.7757 1.82563 21.7367L2.50109 20.4685L2.51194 20.4834C2.80272 19.8946 3.18894 19.2372 4.34842 19.2871Z" fill="currentColor"/>
<path d="M19.3075 14.2972H22.9994C24.1039 14.2972 24.9998 15.2695 25 16.47C25 17.6705 24.104 18.6442 22.9994 18.6442H21.6241L23.2707 21.7367C23.8241 22.7758 23.4982 24.1054 22.5423 24.7071C21.5864 25.3086 20.3627 24.9541 19.8093 23.915L14.1208 13.2338L14.1235 13.2351C13.7479 12.3465 13.3088 10.5389 14.289 8.40792C14.6315 7.66354 15.0761 7.34965 15.5694 7.27808L19.3075 14.2972Z" fill="currentColor"/>
<path d="M12.8255 1.08502C13.3789 0.0459979 14.6027 -0.308631 15.5585 0.292916C16.5144 0.894473 16.8404 2.22431 16.2869 3.26331L10.4099 14.2972H12.1474C13.0056 14.3071 13.8894 14.4004 14.4382 15.2832C15.0411 16.2532 15.0868 17.5015 14.86 18.6442H2.0006C0.896022 18.6442 0 17.6705 0 16.47C0.000157789 15.2695 0.896119 14.2972 2.0006 14.2972H5.78749L10.2363 5.94344L8.80941 3.26331C8.25603 2.22438 8.58205 0.894527 9.53776 0.292916C10.4936 -0.308621 11.7174 0.0460377 12.2708 1.08502L12.5475 1.6045L12.8255 1.08502Z" fill="currentColor"/>
</svg>
