<svg width="23" height="25" viewBox="0 0 23 25" fill="none" xmlns="http://www.w3.org/2000/svg">
<path d="M20.4444 0C21.85 0 23 1.125 23 2.5V22.5C23 23.875 21.85 25 20.4444 25H7.66667C6.26111 25 5.11111 23.875 5.11111 22.5V13.75H7.66667V22.5H20.4444V2.5H7.66667V6.25H5.11111V2.5C5.11111 1.125 6.26111 0 7.66667 0H20.4444Z" fill="currentColor"/>
<path d="M15.3333 20H12.7778V17.5H15.3333V20Z" fill="currentColor"/>
<path d="M17.1402 10L11.7645 15.2588L9.95768 13.4913L12.2487 11.25H3.83333V8.75H12.2487L9.95768 6.50879L11.7645 4.74121L17.1402 10Z" fill="currentColor"/>
<path d="M2.55556 11.25H0V8.75H2.55556V11.25Z" fill="currentColor"/>
</svg>
