<svg width="23" height="25" viewBox="0 0 23 25" fill="none" xmlns="http://www.w3.org/2000/svg">
<path d="M15.7037 18.2355L10.7809 13.3839L0.397854 23.6169C0.493132 23.7725 0.603541 23.9194 0.727851 24.0552C1.02198 24.3766 1.38625 24.628 1.79323 24.7905C2.20023 24.9531 2.63933 25.0225 3.07749 24.9936C3.51566 24.9647 3.94146 24.8382 4.32282 24.6236L15.7037 18.2355Z" fill="currentColor"/>
<path d="M16.8532 17.6006L11.6777 12.5L16.8196 7.4326L21.5029 10.0761H21.4871C21.9935 10.3411 22.4079 10.7495 22.6768 11.2486C22.8492 11.5714 22.9551 11.9244 22.9886 12.2875C23.0219 12.6506 22.9822 13.0166 22.8717 13.3646C22.7611 13.7125 22.5819 14.0355 22.3442 14.315C22.1067 14.5945 21.8153 14.8249 21.4871 14.993L16.8532 17.6006Z" fill="currentColor"/>
<path d="M15.6792 6.78874L10.7809 11.6161L0.397169 1.38254C0.586621 1.07104 0.836053 0.796155 1.1339 0.57453C1.63653 0.200543 2.24945 -0.00121945 2.87925 5.54537e-06C3.40068 0.00176804 3.91236 0.139293 4.36248 0.39868L15.6792 6.78874Z" fill="currentColor"/>
<path d="M0.000254902 2.75914C7.73342e-05 2.77225 -1.14917e-05 2.78537 1.19171e-06 2.79848V22.216C1.19171e-06 22.2244 2.66963e-05 22.2327 0.000102797 22.2411L9.88405 12.5L0.000254902 2.75914Z" fill="currentColor"/>
</svg>
