<svg width="25" height="22" viewBox="0 0 25 22" fill="none" xmlns="http://www.w3.org/2000/svg">
<path d="M0 21.4634V17.7073C0 16.9695 0.177083 16.2764 0.53125 15.628C0.885417 14.9797 1.375 14.4878 2 14.1524C3.0625 13.5711 4.26042 13.0793 5.59375 12.6768C6.92708 12.2744 8.39583 12.0732 10 12.0732C10.625 12.0732 11.2344 12.1067 11.8281 12.1738C12.4219 12.2409 13 12.3415 13.5625 12.4756L11.375 14.8232C11.1458 14.7785 10.9219 14.7561 10.7031 14.7561C10.4844 14.7561 10.25 14.7561 10 14.7561C8.52083 14.7561 7.19271 14.9461 6.01562 15.3262C4.83854 15.7063 3.875 16.1199 3.125 16.5671C2.9375 16.6789 2.78646 16.8354 2.67188 17.0366C2.55729 17.2378 2.5 17.4614 2.5 17.7073V18.7805H10.3125L12.8125 21.4634H0ZM16.9375 22L12.625 17.372L14.375 15.4939L16.9375 18.2439L23.25 11.4695L25 13.3476L16.9375 22ZM10 10.7317C8.625 10.7317 7.44792 10.2063 6.46875 9.15549C5.48958 8.10467 5 6.84146 5 5.36585C5 3.89024 5.48958 2.62703 6.46875 1.57622C7.44792 0.525406 8.625 0 10 0C11.375 0 12.5521 0.525406 13.5312 1.57622C14.5104 2.62703 15 3.89024 15 5.36585C15 6.84146 14.5104 8.10467 13.5312 9.15549C12.5521 10.2063 11.375 10.7317 10 10.7317ZM10 8.04878C10.6875 8.04878 11.276 7.78608 11.7656 7.26067C12.2552 6.73526 12.5 6.10366 12.5 5.36585C12.5 4.62805 12.2552 3.99644 11.7656 3.47104C11.276 2.94563 10.6875 2.68293 10 2.68293C9.3125 2.68293 8.72396 2.94563 8.23438 3.47104C7.74479 3.99644 7.5 4.62805 7.5 5.36585C7.5 6.10366 7.74479 6.73526 8.23438 7.26067C8.72396 7.78608 9.3125 8.04878 10 8.04878Z" fill="currentColor"/>
</svg>
